PathFileType	4	(X/Y/Z)	C:/Users/opensim2020/Desktop/walking_exp_matlab/subject06_walking19_straight_02.trc																																																																																																																																																	
DataRate	CameraRate	NumFrames	NumMarkers	Units	OrigDataRate	OrigDataStartFrame	OrigNumFrames																																																																																																																																													
100	100	8	49	mm	100	2483	332																																																																																																																																													
Frame#	Time	LFHD			RFHD			LBHD			RBHD			C7			T10			CLAV			STRN			RBAK			LSHO			LUPA			LELB			LFRM			LWRA			LWRB			LFIN			RSHO			RUPA			RELB			RFRM			RWRA			RWRB			RFIN			LASI			RASI			LPSI			RPSI			LTHI			LKNE			LTIB			LANK			LHEE			LTOE			RTHI			RKNE			RTIB			RANK			RHEE			RTOE			*39			*40			*41			*42			*43			*44			*45			*46			*47			*48		
		X1	Y1	Z1	X2	Y2	Z2	X3	Y3	Z3	X4	Y4	Z4	X5	Y5	Z5	X6	Y6	Z6	X7	Y7	Z7	X8	Y8	Z8	X9	Y9	Z9	X10	Y10	Z10	X11	Y11	Z11	X12	Y12	Z12	X13	Y13	Z13	X14	Y14	Z14	X15	Y15	Z15	X16	Y16	Z16	X17	Y17	Z17	X18	Y18	Z18	X19	Y19	Z19	X20	Y20	Z20	X21	Y21	Z21	X22	Y22	Z22	X23	Y23	Z23	X24	Y24	Z24	X25	Y25	Z25	X26	Y26	Z26	X27	Y27	Z27	X28	Y28	Z28	X29	Y29	Z29	X30	Y30	Z30	X31	Y31	Z31	X32	Y32	Z32	X33	Y33	Z33	X34	Y34	Z34	X35	Y35	Z35	X36	Y36	Z36	X37	Y37	Z37	X38	Y38	Z38	X39	Y39	Z39	X40	Y40	Z40	X41	Y41	Z41	X42	Y42	Z42	X43	Y43	Z43	X44	Y44	Z44	X45	Y45	Z45	X46	Y46	Z46	X47	Y47	Z47	X48	Y48	Z48	X49	Y49	Z49
																																																																																																																																																				
291	2.9	474.32452	1657.77893	910.9649	483.30594	1652.8844	1042.56262	344.63275	1596.56604	921.70221	355.04965	1596.59863	1051.26013	353.62427	1444.31653	980.3158	328.06876	1114.48169	994.1944	465.01688	1369.69897	981.38202	508.33655	1195.02393	980.46912	285.435	1274.55444	1064.35583	410.80237	1397.25244	818.5874	397.77814	1193.95386	752.3205	385.8894	1082.16968	743.3111	406.65344	933.414	719.10675	472.29092	819.62689	754.09381	407.72504	814.12677	723.19891	449.21585	733.06659	718.60718	422.18304	1402.62268	1142.54565	387.49463	1204.44531	1233.24597	399.28995	1083.02808	1244.93762	434.23166	967.95557	1258.21399	519.32971	845.07239	1219.03674	467.8432	834.97632	1261.07092	518.30078	766.58093	1258.36719	517.6156	964.27472	889.17487	504.2399	959.70422	1107.36829	358.85065	986.78827	907.37866	355.72159	984.42932	1075.28186	487.55048	652.13275	816.42804	511.23022	491.84869	838.24792	521.16486	235.56148	837.10797	549.32104	63.68836	876.63739	511.75192	44.42057	923.052	696.17358	43.93713	893.76105	413.81357	621.79871	1153.64551	395.87366	496.10947	1135.34607	225.89194	286.01157	1137.4292	109.81054	137.15938	1101.80273	60.56477	137.68581	1060.87683	219.84105	31.49143	1083.29443	376.25888	1693.50793	974.97314	NaN	NaN	NaN	NaN	NaN	NaN	NaN	NaN	NaN	NaN	NaN	NaN	NaN	NaN	NaN	NaN	NaN	NaN	NaN	NaN	NaN	NaN	NaN	NaN	NaN	NaN	NaN
292	2.91	480.98831	1658.53333	909.26135	489.84985	1653.73425	1040.84875	351.42368	1597.14551	919.91028	361.73022	1597.34778	1049.42566	360.8045	1444.85876	978.49438	335.60599	1115.07947	991.82593	472.10748	1370.47583	979.65692	515.80389	1195.85083	978.66089	292.77921	1275.08386	1062.31091	417.8526	1398.29761	816.84967	405.81149	1195.00708	750.37396	394.7518	1083.11768	741.32196	416.77481	934.53357	717.18335	482.96707	821.35254	752.4762	419.33371	815.11407	721.48352	461.35098	734.6012	716.81445	429.23553	1403.30054	1140.68103	394.73749	1205.33179	1231.67957	405.95221	1083.68567	1242.93823	439.51498	968.19543	1256.42456	523.08655	843.9978	1217.40576	471.49249	834.71399	1259.58521	520.81665	765.44794	1256.86658	525.34528	964.64764	887.76697	511.55814	960.70313	1106.11499	366.76553	987.47791	905.31439	363.0011	985.14349	1073.12183	493.28745	652.24182	815.07593	515.64758	491.73868	836.57379	523.34131	235.36833	836.44293	550.10486	63.45727	876.65393	512.36847	44.68539	922.9657	696.9082	42.59186	893.77045	422.61542	622.59662	1152.79883	406.06635	496.4248	1135.7478	233.42047	289.01599	1137.37915	114.86396	142.12744	1101.55615	66.23549	144.35226	1060.38672	220.62781	31.84656	1082.99573	382.80496	1694.18713	973.17084	NaN	NaN	NaN	NaN	NaN	NaN	NaN	NaN	NaN	NaN	NaN	NaN	NaN	NaN	NaN	NaN	NaN	NaN	NaN	NaN	NaN	NaN	NaN	NaN	NaN	NaN	NaN
293	2.92	487.67188	1659.18628	907.57373	496.34732	1654.45068	1039.16296	358.24139	1597.52698	918.18091	368.38458	1597.69739	1047.76392	367.89893	1445.27136	976.68512	343.01895	1115.54126	989.51941	479.12637	1370.99341	978.00256	523.24835	1196.53003	976.83844	299.98193	1275.39099	1060.17981	424.93716	1399.20679	815.16119	413.78534	1195.9209	748.33722	403.53717	1083.93738	739.22058	427.14813	935.54071	715.13727	494.50516	823.17499	750.43817	430.86743	816.26373	719.80927	473.57379	736.03339	715.02417	436.20096	1403.74121	1138.90271	401.73276	1205.87634	1229.98816	412.54694	1084.09778	1240.96399	444.9256	968.24194	1254.6626	526.92224	842.88489	1215.87561	475.21857	834.27252	1258.12842	523.8429	764.37518	1255.13403	532.92004	964.99774	886.32196	518.70135	961.57983	1104.59216	374.15826	988.21503	903.24316	370.07822	985.66833	1071.02136	499.20346	652.44391	813.67139	520.23492	491.63049	835.03607	526.0166	235.23277	835.84094	550.95001	63.47543	876.87054	512.92609	44.98039	923.03467	697.66064	41.45002	894.39178	431.25186	623.04852	1152.54041	416.45508	496.59814	1136.34839	241.30127	291.96472	1137.57971	120.37804	147.22049	1101.44653	72.21782	150.93295	1060.04749	221.32266	32.55801	1082.67139	389.32956	1694.63	971.42175	NaN	NaN	NaN	NaN	NaN	NaN	NaN	NaN	NaN	NaN	NaN	NaN	NaN	NaN	NaN	NaN	NaN	NaN	NaN	NaN	NaN	NaN	NaN	NaN	NaN	NaN	NaN
294	2.93	494.22537	1659.65955	906.0188	502.83914	1655.00464	1037.56519	364.97479	1597.6405	916.48486	375.052	1597.92468	1046.02734	374.90903	1445.70422	975.17554	350.22165	1115.93176	987.2879	486.25543	1371.44507	976.30029	530.53979	1196.97754	975.08417	307.16199	1275.59631	1057.89441	432.13034	1399.8772	813.49011	421.82693	1196.62573	746.27283	412.4671	1084.52954	737.05298	437.46454	936.38446	713.10638	505.59552	824.4364	748.66565	442.08344	816.99915	717.93945	486.10757	737.37762	713.2489	443.11719	1404.03992	1137.1676	408.39978	1206.16895	1228.14624	419.12958	1084.26355	1239.01184	450.3623	968.06592	1252.94568	530.81488	841.6615	1214.46167	479.05521	833.80872	1256.76575	526.74316	763.17853	1253.70264	540.40283	965.23553	884.79987	525.64014	962.17834	1103.17004	381.43442	988.67139	901.19012	377.08145	985.94678	1068.99011	505.25531	652.61658	812.37671	524.98083	491.54788	833.63287	529.13953	235.1032	835.40045	551.95508	63.36805	877.28217	513.46942	45.33951	923.16772	698.383	40.171	895.47479	440.32089	623.86218	1152.30212	427.11737	496.56659	1137.03748	249.56685	294.82355	1137.86548	125.9729	152.46492	1101.64502	78.34637	157.89395	1060.09937	222.73125	33.74026	1082.67456	395.84256	1694.92322	969.73291	NaN	NaN	NaN	NaN	NaN	NaN	NaN	NaN	NaN	NaN	NaN	NaN	NaN	NaN	NaN	NaN	NaN	NaN	NaN	NaN	NaN	NaN	NaN	NaN	NaN	NaN	NaN
295	2.94	500.78146	1660.04565	904.46631	509.39081	1655.44885	1036.05957	371.56888	1597.70898	914.89624	381.66397	1597.96228	1044.37244	382.06378	1445.61353	973.48645	357.35233	1116.11389	985.01056	493.33508	1371.73474	974.69342	537.69775	1197.22961	973.34631	314.1691	1275.51221	1055.68152	439.41522	1400.38049	811.80634	430.0101	1197.15747	744.15417	421.47787	1084.98352	734.81885	447.94833	937.349	710.63678	517.12109	825.85242	746.73346	453.86176	817.77118	715.87561	498.62961	738.62738	711.4082	449.92484	1404.10181	1135.49524	415.41882	1206.245	1226.51685	425.66901	1084.23608	1237.16455	455.76642	967.76685	1251.27991	534.81891	840.36743	1213.09509	482.93726	833.11249	1255.38513	529.90735	761.95978	1252.38647	547.7085	965.42078	883.17676	532.60333	962.60394	1101.75049	388.50153	988.87469	899.42096	383.88266	986.00592	1067.17786	511.50681	652.82404	811.09601	529.80811	491.39529	832.40131	532.50854	234.88676	835.05096	553.02625	63.35434	877.84137	514.02087	45.80404	923.41937	699.0816	38.99857	896.74591	449.96191	623.17078	1152.38477	438.07538	496.37289	1137.70715	258.30331	297.59363	1138.26477	131.97806	157.72519	1102.05676	85.09521	164.71832	1060.4342	224.57684	35.18988	1082.59949	402.15799	1695.01575	968.12256	NaN	NaN	NaN	NaN	NaN	NaN	NaN	NaN	NaN	NaN	NaN	NaN	NaN	NaN	NaN	NaN	NaN	NaN	NaN	NaN	NaN	NaN	NaN	NaN	NaN	NaN	NaN
296	2.95	507.36081	1660.36792	902.91492	515.81439	1655.7915	1034.59753	378.34518	1597.56213	913.32623	388.29874	1597.84509	1042.91406	388.97318	1446.09167	971.53613	364.44611	1116.16968	982.83014	500.32721	1371.89307	973.1192	544.71112	1197.31982	971.59503	321.03204	1275.48547	1053.27942	446.76523	1400.68372	810.16272	438.228	1197.50134	742.04401	430.55746	1085.26404	732.56024	458.59302	937.66388	708.86731	528.74756	827.20764	744.88776	465.78799	818.36639	713.82867	511.41519	739.73621	709.52356	456.59225	1404.05823	1133.87195	422.04422	1206.05481	1224.57251	432.14865	1084.04834	1235.30054	461.19373	967.31555	1249.6416	538.89429	839.03302	1211.78979	486.92426	832.34296	1254.0636	533.23621	760.79657	1251.24365	554.90894	965.61139	881.45221	539.38245	962.90173	1100.27112	395.48428	988.87598	897.82343	390.63443	985.90961	1065.61951	517.61115	653.05353	810.03131	534.12177	491.13562	831.58936	535.83551	234.61157	834.7677	554.11639	63.35926	878.42633	514.62146	46.29758	923.82343	699.81866	38.15515	897.50616	458.72809	623.65424	1152.16602	449.2081	496.09741	1138.2323	267.60104	300.24323	1138.74133	138.57002	163.04881	1102.74915	92.12651	171.51207	1061.01648	227.17484	36.68665	1082.51477	408.59293	1694.96887	966.50116	NaN	NaN	NaN	NaN	NaN	NaN	NaN	NaN	NaN	NaN	NaN	NaN	NaN	NaN	NaN	NaN	NaN	NaN	NaN	NaN	NaN	NaN	NaN	NaN	NaN	NaN	NaN
297	2.96	513.86621	1660.6217	901.52856	522.20825	1656.01257	1033.18066	385.05167	1597.38208	911.83667	394.93396	1597.71045	1041.41309	395.85617	1446.28723	969.98114	371.24347	1116.2373	980.83441	507.22598	1371.97974	971.59412	551.56628	1197.3645	969.90442	327.80774	1275.37231	1050.97314	454.14694	1400.87585	808.55011	446.61697	1197.68604	739.97321	439.60391	1085.42493	730.23669	469.40005	938.1098	706.5603	540.44299	828.42828	743.08771	477.59149	818.96588	711.81537	524.33264	740.82819	707.59412	463.21622	1403.88843	1132.32629	428.29248	1205.74475	1222.73035	438.37848	1083.71936	1233.49597	466.46463	966.76398	1248.01343	542.92694	837.66113	1210.58936	490.82883	831.4856	1252.75964	536.57806	759.66223	1250.22742	561.91388	965.72455	879.71362	546.15289	963.03943	1098.81909	402.34161	988.78149	896.38226	397.33612	985.72284	1064.23425	523.66089	652.9411	809.11835	538.99347	490.97702	830.6178	539.13123	234.3421	834.50836	555.00116	63.28851	878.85187	515.19873	46.6558	924.17181	700.78931	37.53824	897.75385	469.09726	623.22266	1151.76794	460.59033	495.86398	1138.68982	277.40851	302.77878	1139.35474	145.48029	168.28214	1103.74817	99.72636	178.16521	1061.96069	228.76329	38.54039	1083.3324	414.90698	1694.91223	965.06177	NaN	NaN	NaN	NaN	NaN	NaN	NaN	NaN	NaN	NaN	NaN	NaN	NaN	NaN	NaN	NaN	NaN	NaN	NaN	NaN	NaN	NaN	NaN	NaN	NaN	NaN	NaN
298	2.97	520.44513	1660.79614	900.27209	528.62415	1656.22522	1031.89087	391.76492	1597.23035	910.42169	401.50089	1597.55103	1039.93201	402.83499	1446.40869	968.3587	378.10703	1116.23779	978.86206	514.06049	1372.0144	970.13239	558.26556	1197.31238	968.26587	334.4259	1275.25427	1048.81348	461.53192	1400.97827	806.94397	455.15152	1197.72229	737.91339	448.81534	1085.39648	727.93591	479.98459	938.3667	704.55292	551.88983	829.44885	741.46088	489.51489	819.28986	709.76367	537.02374	741.80878	705.77527	469.72134	1403.64551	1130.90186	434.51855	1205.25574	1220.84375	444.5495	1083.3219	1231.72058	471.69232	966.10693	1246.42822	547.05078	836.27222	1209.48193	494.72418	830.62555	1251.47021	539.73676	758.32764	1249.40576	568.82239	965.78906	878.00128	552.9209	963.17419	1097.39917	409.00595	988.69678	895.00775	403.85861	985.46423	1062.92236	529.82239	653.06848	808.42664	544.17334	490.72287	829.49335	541.92377	234.08511	834.13837	555.87439	63.18822	879.17792	515.62805	46.88297	924.38184	701.64917	37.25233	897.90637	478.73294	623.19629	1151.36963	472.11746	495.63025	1138.85156	287.64185	305.22333	1139.9248	153.38152	173.28101	1104.84607	107.69099	184.61224	1063.02368	231.93626	40.65731	1083.77173	421.34573	1694.82581	963.68219	NaN	NaN	NaN	NaN	NaN	NaN	NaN	NaN	NaN	NaN	NaN	NaN	NaN	NaN	NaN	NaN	NaN	NaN	NaN	NaN	NaN	NaN	NaN	NaN	NaN	NaN	NaN
